<?xml version="1.0" encoding="utf-8"?>
<svg viewBox="0 0 50 50" width="50px" height="50px" xmlns="http://www.w3.org/2000/svg">
  <path d="M 26.633 2 C 27.403 1.989 27.896 2.816 27.52 3.488 C 27.341 3.809 27 4.005 26.633 4 C 15.023 4 5.633 13.391 5.633 25 C 5.633 36.61 15.023 46 26.633 46 C 38.243 46 47.633 36.61 47.633 25 C 47.633 18.307 44.502 12.365 39.633 8.52 L 39.633 15 C 39.644 15.77 38.817 16.263 38.145 15.887 C 37.824 15.708 37.628 15.367 37.633 15 L 37.633 6.551 L 37.633 5 L 47.633 5 C 48.403 4.989 48.896 5.816 48.52 6.488 C 48.341 6.809 48 7.005 47.633 7 L 40.934 7 C 46.231 11.215 49.633 17.712 49.633 25 C 49.633 37.691 39.323 48 26.633 48 C 13.943 48 3.633 37.691 3.633 25 C 3.633 12.31 13.943 2 26.633 2 Z" transform="matrix(-0.352147, -0.935945, 0.935945, -0.352147, 12.613157, 58.730613)"/>
</svg>